<svg xmlns="http://www.w3.org/2000/svg" xmlns:xlink="http://www.w3.org/1999/xlink" width="48" height="48" viewBox="0 0 48 48">
  <defs>
    <linearGradient id="linear-gradient" x1="0.5" x2="0.5" y2="1" gradientUnits="objectBoundingBox">
      <stop offset="0" stop-color="#0325e1"/>
      <stop offset="1" stop-color="#0daae9"/>
    </linearGradient>
  </defs>
  <g id="Quality" transform="translate(-964 -2542)">
    <circle id="Ellipse_923" data-name="Ellipse 923" cx="24" cy="24" r="24" transform="translate(964 2542)" fill="#b8c2c9" opacity="0"/>
    <g id="Xvintec_Icons_Quality" data-name="Xvintec Icons_Quality" transform="translate(971.318 2549.332)">
      <path id="Path_25874" data-name="Path 25874" d="M585.78,579.318c-.213-.226-.436-.446-.652-.659l-.23-.227-1.958-1.944-.647-.642a15.217,15.217,0,0,0,1.863-5.247,14.741,14.741,0,0,0-.149-5.371,14.991,14.991,0,0,0-1.975-4.866,14.757,14.757,0,0,0-3.531-3.883,14.555,14.555,0,0,0-4.463-2.321,15.089,15.089,0,0,0-9.736.221,14.488,14.488,0,0,0-4.348,2.524,14.871,14.871,0,0,0-5.063,14.02,15.258,15.258,0,0,0,1.816,4.929,2.127,2.127,0,0,0-.243.2c-.548.545-1.1,1.1-1.641,1.638-.516.516-1.049,1.049-1.575,1.572a1.15,1.15,0,0,0,.617,2.047c.518.1,1.044.2,1.553.307.619.125,1.26.254,1.892.371.2.037.259.1.3.315.1.542.214,1.092.322,1.623.115.569.234,1.157.343,1.736a1.171,1.171,0,0,0,2.133.621c.532-.535,1.075-1.078,1.6-1.6.747-.747,1.52-1.519,2.276-2.284a.288.288,0,0,1,.374-.083,15,15,0,0,0,4.818.82h.013a15.008,15.008,0,0,0,4.806-.811.343.343,0,0,1,.442.115c.931.943,1.884,1.894,2.806,2.815l1.132,1.131a1.219,1.219,0,0,0,.865.408,1.1,1.1,0,0,0,.316-.048,1.156,1.156,0,0,0,.827-.969c.079-.4.163-.815.245-1.213.147-.717.3-1.459.427-2.193.046-.263.12-.339.375-.385,1.1-.2,2.258-.432,3.449-.688a1.2,1.2,0,0,0,.947-.779,1.214,1.214,0,0,0-.344-1.2Zm-23.591,1.889-2.082,2.081-.077-.378c-.119-.587-.243-1.195-.361-1.793a1.231,1.231,0,0,0-1.192-1.185c-.6-.118-1.2-.24-1.778-.358l-.34-.069,1.728-1.72a15.007,15.007,0,0,0,4.1,3.423ZM582.071,568.3a12.567,12.567,0,0,1-12.578,12.572h-.033a12.6,12.6,0,0,1-8.859-21.509,12.478,12.478,0,0,1,8.876-3.674h.018A12.576,12.576,0,0,1,582.071,568.3Zm-4.749,12.586c.55-.379,1.119-.771,1.655-1.214s1.034-.929,1.515-1.4c.153-.15.311-.3.467-.454l1.676,1.681-.359.073c-.583.118-1.186.24-1.786.358a1.23,1.23,0,0,0-1.182,1.194c-.118.6-.239,1.2-.357,1.776l-.071.348-2.03-2.035c.153-.107.309-.215.471-.327Z" transform="translate(-552.807 -553.457)" fill="url(#linear-gradient)"/>
      <path id="Path_25875" data-name="Path 25875" d="M892.306,787.076a3.656,3.656,0,0,0-.968-.237c-1.26-.128-2.525-.241-3.76-.335a.306.306,0,0,1-.318-.232c-.377-.926-.781-1.912-1.2-2.887a7.923,7.923,0,0,0-.631-1.205,1.478,1.478,0,0,0-1.2-.76h0a1.463,1.463,0,0,0-1.193.748,7.828,7.828,0,0,0-.635,1.2c-.387.887-.769,1.806-1.17,2.81-.1.244-.189.315-.428.331-1.46.1-2.656.208-3.764.336a1.736,1.736,0,0,0-1.7,1.053,1.715,1.715,0,0,0,.734,1.818c.439.413.9.813,1.347,1.2.266.23.54.468.806.706.227.2.406.35.55.468.211.173.338.278.362.351a1.286,1.286,0,0,1-.084.487c-.045.174-.1.389-.164.674-.011.048-.023.1-.036.147s-.024.094-.035.142l-.514,2.275-.111.49v.022a1.875,1.875,0,0,0,.62,1.7,1.443,1.443,0,0,0,1.386.065,5.309,5.309,0,0,0,.8-.386c.667-.395,1.34-.8,1.991-1.2l.467-.284c.422-.257.616-.37.772-.371h0a2,2,0,0,1,.769.365l.029.017c.242.146.488.3.725.442.748.459,1.522.934,2.324,1.328a2.147,2.147,0,0,0,.935.245,1.2,1.2,0,0,0,.7-.206,1.674,1.674,0,0,0,.556-1.621,1.9,1.9,0,0,0-.038-.238q-.111-.49-.22-.979c-.2-.911-.414-1.854-.64-2.777a.5.5,0,0,1,.2-.6c.96-.8,1.811-1.539,2.6-2.244a4.514,4.514,0,0,0,.794-.912,1.326,1.326,0,0,0,.186-1.131,1.358,1.358,0,0,0-.831-.827Zm-4.755,3.906a1.607,1.607,0,0,0-.52,1.642c.147.671.3,1.351.457,2.009.073.314.148.639.222.96l-.136-.083c-.39-.239-.758-.464-1.128-.686-.335-.2-.677-.4-1.008-.594l-.359-.21a1.586,1.586,0,0,0-1.719,0l-1.439.862-1.13.678-.061.036.081-.343c.133-.564.259-1.1.387-1.629a3.708,3.708,0,0,0,.181-1.932c-.156-.478-.567-.842-1.282-1.443-.411-.347-.825-.7-1.262-1.072l-.261-.222.259-.02c.565-.044,1.1-.087,1.627-.133.469-.042.89-.089,1.287-.143a1.526,1.526,0,0,0,1.244-.939c.271-.619.54-1.251.8-1.862q.181-.426.363-.851l.065-.151c.081.181.154.344.225.509.129.3.258.606.383.9.2.466.4.948.607,1.42a1.55,1.55,0,0,0,1.318.981c.757.077,1.528.146,2.273.212l.838.075c-.132.12-.252.229-.375.336-.5.436-1.005.878-1.5,1.3l-.44.383Z" transform="translate(-867.539 -775.965)" fill="url(#linear-gradient)"/>
    </g>
  </g>
</svg>
